HIERARCHY
ROOT Hips
{
	OFFSET 0.00 0.00 0.00
	CHANNELS 6 Xposition Yposition Zposition Xrotation Yrotation Zrotation
	JOINT RightUpLeg
	{
		OFFSET -3.76699 0.00000 0.00000
		CHANNELS 3 Xrotation Yrotation Zrotation
		JOINT RightLeg
		{
			OFFSET 0.00000 -18.01768 0.00000
			CHANNELS 3 Xrotation Yrotation Zrotation
			JOINT RightFoot
			{
				OFFSET 0.00000 -16.88108 0.00000
				CHANNELS 3 Xrotation Yrotation Zrotation
				JOINT RightToeBase
				{
					OFFSET 0.00000 -1.49359 5.57418
					CHANNELS 3 Xrotation Yrotation Zrotation
					End Site
					{
						OFFSET 0.00000 0.00000 2.95275
					}
				}
			}
		}
	}
	JOINT LeftUpLeg
	{
		OFFSET 3.76699 0.00000 0.00000
		CHANNELS 3 Xrotation Yrotation Zrotation
		JOINT LeftLeg
		{
			OFFSET 0.00000 -18.01768 0.00000
			CHANNELS 3 Xrotation Yrotation Zrotation
			JOINT LeftFoot
			{
				OFFSET 0.00000 -16.88108 0.00000
				CHANNELS 3 Xrotation Yrotation Zrotation
				JOINT LeftToeBase
				{
					OFFSET 0.00000 -1.49359 5.57418
					CHANNELS 3 Xrotation Yrotation Zrotation
					End Site
					{
						OFFSET 0.00000 0.00000 2.95275
					}
				}
			}
		}
	}
	JOINT Spine
	{
		OFFSET 0.00000 7.77970 0.00000
		CHANNELS 3 Xrotation Yrotation Zrotation
		JOINT RightShoulder
		{
			OFFSET 0.00000 10.94176 0.00000
			CHANNELS 3 Xrotation Yrotation Zrotation
			JOINT RightArm
			{
				OFFSET -7.70894 0.00000 0.00000
				CHANNELS 3 Xrotation Yrotation Zrotation
				JOINT RightForeArm
				{
					OFFSET -11.52135 0.00000 0.00000
					CHANNELS 3 Yrotation Zrotation Xrotation
					JOINT RightHand
					{
						OFFSET -10.17590 0.00000 0.00000
						CHANNELS 3 Xrotation Yrotation Zrotation
						End Site
						{
							OFFSET -3.93700 0.00000 0.00000
						}
						JOINT RightHandThumb1
						{
							OFFSET 0.00000 0.00000 0.00000
							CHANNELS 3 Xrotation Zrotation Yrotation
							End Site
							{
								OFFSET 0.00000 0.00000 3.93700
							}
						}
					}
				}
			}
		}
		JOINT LeftShoulder
		{
			OFFSET 0.00000 10.94176 0.00000
			CHANNELS 3 Xrotation Yrotation Zrotation
			JOINT LeftArm
			{
				OFFSET 7.70894 0.00000 0.00000
				CHANNELS 3 Xrotation Yrotation Zrotation
				JOINT LeftForeArm
				{
					OFFSET 11.52135 0.00000 0.00000
					CHANNELS 3 Yrotation Zrotation Xrotation
					JOINT LeftHand
					{
						OFFSET 10.17590 0.00000 0.00000
						CHANNELS 3 Xrotation Yrotation Zrotation
						End Site
						{
							OFFSET 3.93700 0.00000 0.00000
						}
						JOINT LeftHandThumb1
						{
							OFFSET 0.00000 0.00000 0.00000
							CHANNELS 3 Xrotation Zrotation Yrotation
							End Site
							{
								OFFSET 0.00000 0.00000 3.93700
							}
						}
					}
				}
			}
		}
		JOINT Head
		{
			OFFSET 0.00000 16.64604 0.00000
			CHANNELS 3 Xrotation Yrotation Zrotation
			End Site
			{
				OFFSET 0.00000 4.52755 0.00000
			}
		}
	}
}
MOTION
Frames: 23
Frame Time: 0.008333
 7.7205 37.1773 0.8954 -8.0288 -8.6457 0.9248 14.5988 -2.7105 -1.4936 -3.9257 -0.0000 0.0000 -9.3302 -17.3474 9.4251 14.1924 -0.0000 0.0000 13.5213 -0.2620 -1.1170 -1.2383 0.0000 0.0000 -6.9462 23.0624 -8.9322 9.9156 0.0000 0.0000 7.5309 -3.3592 -0.3788 12.2493 -4.5878 -19.6360 -28.0235 5.9569 38.7054 76.5081 0.0000 2.8015 0.0727 0.4655 -8.8714 32.8623 0.0000 -24.3270 23.6324 22.6375 9.1747 -61.8054 -9.8515 -48.2947 -64.3919 -0.0000 -17.4642 -2.3525 20.2970 6.7541 33.1476 -0.0000 26.2537 10.1785 14.0029 1.1816
 7.7200 37.1769 0.8845 -8.0778 -8.6462 0.9151 14.6119 -2.6698 -1.4903 -3.8854 -0.0000 -0.0000 -9.3576 -17.3795 9.3897 14.1633 0.0000 -0.0000 13.5533 -0.2550 -1.1098 -1.2365 -0.0000 0.0000 -6.9398 23.0553 -8.9679 9.9688 -0.0000 -0.0000 7.5562 -3.4178 -0.3712 12.4746 -4.3782 -19.5095 -28.2851 6.4170 39.4975 78.2456 0.0000 2.6167 0.0839 0.5154 -9.2498 32.8623 0.0000 -24.3270 23.7295 22.5601 9.0634 -61.7701 -10.3250 -48.9094 -65.2828 -0.0000 -17.2427 -2.4049 20.4473 6.8550 33.1476 -0.0000 26.2537 10.1000 14.1678 1.0883
 7.7173 37.1767 0.8727 -8.1364 -8.6502 0.8940 14.6383 -2.6293 -1.4723 -3.8575 -0.0000 0.0000 -9.3813 -17.4253 9.4260 14.1013 0.0000 -0.0000 13.5908 -0.2233 -1.0916 -1.2307 0.0000 -0.0000 -6.9360 23.0252 -8.9563 9.9203 -0.0000 -0.0000 7.5753 -3.4062 -0.3540 12.7059 -4.2192 -19.3917 -28.5231 6.9844 40.2878 79.8845 0.0000 2.2476 0.1152 0.6824 -9.5834 32.8623 0.0000 -24.3270 23.8741 22.4122 8.9875 -61.8389 -10.7586 -49.5823 -66.1097 -0.0000 -16.9428 -2.4536 20.5010 6.9753 33.1476 -0.0000 26.2537 10.0870 14.2712 1.0365
 7.7151 37.1759 0.8589 -8.1985 -8.6595 0.8823 14.7412 -2.3602 -1.4706 -3.9635 0.0000 -0.0000 -9.3626 -17.6937 9.3735 14.0209 0.0000 -0.0000 13.6252 -0.1773 -1.0831 -1.2145 0.0000 -0.0000 -6.9334 22.9699 -8.9516 9.9323 0.0000 0.0000 7.6155 -3.3695 -0.3574 13.0350 -4.1360 -19.1692 -28.9271 7.7212 40.9750 81.4254 0.0000 1.9653 0.1251 0.7367 -9.6398 32.8623 0.0000 -24.3270 23.9715 22.2760 8.9774 -61.9428 -11.1561 -50.3552 -66.8614 -0.0000 -16.5201 -2.4616 20.4921 7.0009 33.1476 -0.0000 26.2537 10.0364 14.3202 0.9968
 7.7079 37.1757 0.8523 -8.2964 -8.6517 0.8442 14.8125 -2.3270 -1.4336 -3.9228 0.0000 -0.0000 -9.3854 -17.6995 9.3670 13.9797 0.0000 -0.0000 13.7214 -0.1553 -1.0433 -1.2301 -0.0000 0.0000 -6.9373 22.9498 -8.9788 9.9701 -0.0000 0.0000 7.6918 -3.3277 -0.3378 13.1943 -4.0402 -18.9814 -29.2174 8.4519 41.7756 82.9496 0.0000 1.7067 0.1537 0.8974 -9.7182 32.8623 0.0000 -24.3270 24.0285 22.1504 8.9756 -62.0576 -11.6136 -51.1846 -67.5625 -0.0000 -15.9684 -2.5620 20.5320 7.2704 33.1476 -0.0000 26.2537 9.9466 14.4243 0.9905
 7.7020 37.1752 0.8434 -8.3997 -8.6510 0.8157 14.8990 -2.2759 -1.4090 -3.9086 0.0000 -0.0000 -9.4123 -17.7362 9.3355 13.9437 0.0000 -0.0000 13.8179 -0.1442 -1.0155 -1.2351 -0.0000 0.0000 -6.9411 22.9504 -8.9796 9.9610 0.0000 0.0000 7.7710 -3.2544 -0.3270 13.3989 -3.9706 -18.7928 -29.6537 9.1953 42.6448 84.3843 0.0000 1.4436 0.1608 0.9376 -9.7354 32.8623 0.0000 -24.3270 24.1970 21.9450 8.9583 -62.2197 -12.0598 -51.9171 -68.2829 -0.0000 -15.2809 -2.6334 20.6093 7.4445 33.1476 -0.0000 26.2537 9.9040 14.4839 0.9744
 7.7023 37.1752 0.8265 -8.4484 -8.6271 0.7924 14.9107 -2.2204 -1.3887 -3.8748 0.0000 0.0000 -9.4317 -17.8106 9.3678 13.8817 0.0000 -0.0000 13.8274 -0.1826 -0.9925 -1.2186 -0.0000 -0.0000 -6.9348 22.9564 -8.9611 9.9335 -0.0000 -0.0000 7.8131 -3.2864 -0.2729 13.5371 -3.7802 -18.6821 -30.0657 9.8972 43.5787 85.7656 0.0000 1.1863 0.1845 1.0729 -9.7597 32.8623 0.0000 -24.3270 24.4251 21.7881 8.8374 -62.4719 -12.4642 -52.6794 -69.0452 -0.0000 -14.4498 -2.7896 20.8924 7.7805 33.1476 -0.0000 26.2537 9.8443 14.6264 0.8320
 7.7013 37.1747 0.8138 -8.5248 -8.6183 0.7697 14.9586 -2.1778 -1.3724 -3.8545 -0.0000 0.0000 -9.4498 -17.8495 9.3566 13.7933 -0.0000 -0.0000 13.8828 -0.1877 -0.9745 -1.2188 0.0000 0.0000 -6.9387 22.9442 -8.9315 9.9389 -0.0000 0.0000 7.8988 -3.2973 -0.2310 13.6297 -3.6050 -18.5859 -30.5242 10.6115 44.6257 87.0965 0.0000 0.9635 0.2008 1.1563 -9.8541 32.8623 0.0000 -24.3270 24.4361 21.6340 8.8325 -62.5161 -12.9364 -53.4842 -69.8009 -0.0000 -13.2324 -3.0908 21.2543 8.4722 33.1476 -0.0000 26.2537 9.7358 14.7308 0.7527
 7.7012 37.1742 0.7973 -8.5971 -8.5790 0.7427 14.9899 -2.1672 -1.3472 -3.8095 0.0000 0.0000 -9.4789 -17.8940 9.3693 13.8443 0.0000 0.0000 13.9208 -0.2528 -0.9433 -1.2090 -0.0000 0.0000 -6.9534 22.9709 -8.9349 9.9858 0.0000 -0.0000 7.9994 -3.3745 -0.1645 13.6877 -3.3825 -18.5399 -31.0098 11.3441 45.7399 88.3551 0.0000 0.7985 0.2278 1.2887 -10.0237 32.8623 0.0000 -24.3270 24.5045 21.4803 8.7528 -62.6110 -13.4641 -54.2105 -70.5338 -0.0000 -12.1762 -3.5462 21.7564 9.4916 33.1476 -0.0000 26.2537 9.5996 14.8852 0.6046
 7.6983 37.1744 0.7808 -8.6509 -8.5830 0.7214 14.9947 -2.1415 -1.3252 -3.7637 0.0000 0.0000 -9.5003 -17.9018 9.3723 13.7447 0.0000 -0.0000 13.9474 -0.2433 -0.9210 -1.2013 -0.0000 -0.0000 -6.9487 22.9572 -8.9310 9.9568 -0.0000 0.0000 8.0524 -3.3385 -0.1289 13.6892 -3.1374 -18.4768 -31.3977 12.0636 46.8416 89.5633 0.0000 0.6283 0.2265 1.2873 -9.9806 32.8623 0.0000 -24.3270 24.6158 21.2560 8.7520 -62.7289 -13.9546 -54.9502 -71.2682 -0.0000 -10.9007 -3.9186 22.1823 10.2832 33.1476 -0.0000 26.2537 9.5199 15.0034 0.5344
 7.6951 37.1745 0.7644 -8.7100 -8.5904 0.6970 15.0079 -2.0822 -1.3058 -3.7205 0.0000 0.0000 -9.5260 -17.9354 9.3730 13.7228 -0.0000 0.0000 13.9785 -0.2298 -0.8971 -1.1896 -0.0000 -0.0000 -6.9527 22.9542 -8.9471 10.0188 -0.0000 0.0000 8.1269 -3.3022 -0.0915 13.8245 -2.9184 -18.4527 -31.8994 12.8045 47.9738 90.7428 0.0000 0.6283 0.2343 1.2932 -10.2720 32.8623 0.0000 -24.3270 24.7130 21.0809 8.7894 -62.9945 -14.3262 -55.8462 -71.9116 -0.0000 -9.7089 -4.1675 22.6332 10.7216 33.1476 -0.0000 26.2537 9.4137 15.0419 0.4566
 7.6878 37.1736 0.7533 -8.7924 -8.5840 0.6495 15.0570 -2.0715 -1.2547 -3.6828 0.0000 0.0000 -9.5265 -17.9459 9.3211 13.6581 0.0000 0.0000 14.0580 -0.2980 -0.8455 -1.2146 -0.0000 -0.0000 -6.9603 23.0121 -8.9122 10.0227 0.0000 -0.0000 8.2137 -3.2900 -0.0436 13.9091 -2.6116 -18.4540 -32.2672 13.5614 49.0325 91.8891 0.0000 0.6309 0.2547 1.3540 -10.6521 32.8623 0.0000 -24.3270 24.7975 20.9211 8.8267 -63.1880 -14.8124 -56.6847 -72.5210 -0.0000 -8.3913 -4.5066 22.8803 11.4595 33.1476 -0.0000 26.2537 9.3096 15.1213 0.3970
 7.6890 37.1738 0.7369 -8.8524 -8.5702 0.6471 15.0631 -2.0782 -1.2588 -3.6236 -0.0000 -0.0000 -9.5690 -17.9437 9.3762 13.6271 -0.0000 0.0000 14.0731 -0.1012 -0.8467 -1.1833 0.0000 0.0000 -6.9395 22.8087 -8.9535 9.9748 0.0000 -0.0000 8.2955 -3.2825 -0.0314 14.0427 -2.3274 -18.4292 -32.7205 14.4164 50.0126 92.9364 0.0000 0.7241 0.2808 1.4258 -11.1438 32.8623 0.0000 -24.3270 24.8565 20.7618 8.8938 -63.4118 -15.2820 -57.5790 -73.0666 -0.0000 -6.9407 -4.8249 23.2048 12.0915 33.1476 -0.0000 26.2537 9.1823 15.2388 0.3521
 7.6945 37.1734 0.7213 -8.9258 -8.5500 0.6579 15.0793 -2.1350 -1.2808 -3.5597 -0.0000 -0.0000 -9.6155 -17.9003 9.3754 13.5912 -0.0000 -0.0000 14.1148 0.2033 -0.8703 -1.1831 0.0000 -0.0000 -6.8861 22.4808 -8.9849 9.9570 -0.0000 -0.0000 8.3997 -3.2958 -0.0044 14.4065 -2.1804 -18.3975 -33.5002 15.4302 50.9774 93.8684 0.0000 0.8623 0.2939 1.4303 -11.6131 32.8623 0.0000 -24.3270 24.8910 20.5749 8.9717 -63.6294 -15.6709 -58.5028 -73.5707 -0.0000 -5.4443 -5.1444 23.4599 12.7426 33.1476 -0.0000 26.2537 9.0688 15.3412 0.2474
 7.6801 37.1726 0.7075 -9.0148 -8.5883 0.5958 15.1293 -2.0297 -1.2149 -3.5257 0.0000 -0.0000 -9.6674 -18.0001 9.3935 13.3279 0.0000 0.0000 14.2104 0.0556 -0.7901 -1.2090 -0.0000 0.0000 -6.8953 22.6305 -9.0984 10.0035 -0.0000 -0.0000 8.5288 -3.1881 0.0289 14.4423 -1.8978 -18.3794 -33.9154 16.3344 51.9433 94.7607 0.0000 0.9530 0.3324 1.5878 -11.8255 32.8623 0.0000 -24.3270 24.8822 20.3711 9.1244 -63.8422 -16.0749 -59.4253 -74.0556 -0.0000 -3.7405 -5.3606 23.7074 13.1365 33.1476 -0.0000 26.2537 8.8896 15.4299 0.2810
 7.6765 37.1726 0.6874 -9.0772 -8.5244 0.5590 15.1427 -2.0696 -1.1582 -3.4716 -0.0000 -0.0000 -9.6443 -17.9710 9.2608 13.4430 -0.0000 0.0000 14.2133 -0.1653 -0.7412 -1.1600 0.0000 0.0000 -6.9419 22.7944 -8.9824 9.9831 0.0000 0.0000 8.6443 -3.2554 0.0993 14.5975 -1.6492 -18.3528 -34.5558 17.4458 52.8541 95.4990 0.0000 1.1575 0.3887 1.7618 -12.4426 32.8623 0.0000 -24.3270 24.9632 20.2360 9.1777 -64.1923 -16.4678 -60.3902 -74.4568 -0.0000 -1.9882 -5.5828 23.8268 13.6022 33.1476 -0.0000 26.2537 8.7230 15.5860 0.1908
 7.6800 37.1728 0.6689 -9.1343 -8.4551 0.5427 15.1540 -2.1431 -1.1355 -3.4269 -0.0000 -0.0000 -9.6645 -17.9554 9.2913 13.4325 -0.0000 0.0000 14.2198 -0.2209 -0.7235 -1.1388 0.0000 0.0000 -6.9499 22.7924 -8.9301 10.0007 -0.0000 -0.0000 8.7650 -3.2194 0.1656 14.6781 -1.5185 -18.3445 -35.2171 18.4923 53.8567 96.1958 0.0000 1.1759 0.3837 1.7157 -12.6080 32.8623 0.0000 -24.3270 24.9701 19.9647 9.2840 -64.4799 -16.8319 -61.3394 -74.8833 -0.0000 -0.0366 -5.7410 23.9277 13.9217 33.1476 -0.0000 26.2537 8.5292 15.6024 0.1273
 7.6700 37.1727 0.6537 -9.1906 -8.5280 0.5083 15.1583 -2.0100 -1.1089 -3.3688 0.0000 0.0000 -9.6922 -17.9826 9.2315 13.4032 0.0000 -0.0000 14.2753 -0.0784 -0.6948 -1.1643 -0.0000 0.0000 -6.9265 22.7327 -8.9785 10.0018 -0.0000 0.0000 8.8739 -3.2151 0.2103 14.7170 -1.2019 -18.3886 -35.9050 19.5142 54.9211 96.8006 0.0000 1.4353 0.3855 1.7037 -12.7504 32.8623 0.0000 -24.3270 25.0325 19.8496 9.2934 -64.7778 -17.2647 -62.2173 -75.2881 -0.0000 2.0658 -5.9880 24.1738 14.3671 33.1476 -0.0000 26.2537 8.3399 15.7864 0.0116
 7.6635 37.1727 0.6377 -9.2399 -8.5445 0.4784 15.1663 -1.9685 -1.0773 -3.3404 0.0000 0.0000 -9.7251 -18.0169 9.2721 13.3480 -0.0000 0.0000 14.3091 -0.0046 -0.6604 -1.1769 -0.0000 -0.0000 -6.9059 22.6782 -9.0014 10.0480 0.0000 -0.0000 8.9897 -3.1991 0.2624 14.7298 -0.9429 -18.4451 -36.6668 20.4379 56.0930 97.3334 0.0000 1.6823 0.3375 1.5250 -12.4806 32.8623 0.0000 -24.3270 25.1284 19.7229 9.2926 -65.1875 -17.7500 -63.1625 -75.6437 -0.0000 4.2810 -6.2956 24.4043 14.9499 33.1476 -0.0000 26.2537 8.1106 15.8812 -0.0699
 7.6574 37.1730 0.6191 -9.2734 -8.5380 0.4620 15.1487 -1.9312 -1.0463 -3.2884 0.0000 -0.0000 -9.7553 -18.0680 9.2056 13.2946 0.0000 -0.0000 14.3158 0.0295 -0.6335 -1.1787 0.0000 -0.0000 -6.8861 22.6544 -9.0010 10.0263 -0.0000 -0.0000 9.0939 -3.3037 0.3124 14.6596 -0.5858 -18.5144 -37.3963 21.3838 57.2314 97.7630 0.0000 1.7199 0.3312 1.5232 -12.2690 32.8623 0.0000 -24.3270 25.1578 19.6251 9.2773 -65.4713 -18.2041 -64.0208 -76.0374 -0.0000 6.3760 -6.4541 24.6279 15.1874 33.1476 -0.0000 26.2537 7.9071 16.1260 -0.1629
 7.6576 37.1733 0.6015 -9.3137 -8.4965 0.4441 15.1389 -1.9853 -1.0202 -3.2358 0.0000 0.0000 -9.7775 -18.0544 9.2269 13.2222 -0.0000 -0.0000 14.3881 -0.1763 -0.5975 -1.3111 -0.0000 0.0000 -6.8039 22.7945 -9.0547 10.0240 0.0000 0.0000 9.2086 -3.0870 0.3662 14.7188 -0.5832 -18.5352 -38.2455 22.2679 58.3556 98.1252 0.0000 1.7733 0.3251 1.4984 -12.2432 32.8623 0.0000 -24.3270 25.1152 19.2328 9.4662 -65.7907 -18.6218 -64.9670 -76.3918 -0.0000 8.2889 -6.6373 24.8999 15.4495 33.1476 -0.0000 26.2537 7.6500 16.0300 -0.1506
 7.6557 37.1731 0.5814 -9.3113 -8.4828 0.4318 15.0882 -2.0086 -0.9960 -3.1958 0.0000 0.0000 -9.8024 -18.0269 9.2411 13.2350 0.0000 -0.0000 14.3626 -0.1889 -0.5720 -1.3289 0.0000 -0.0000 -6.7848 22.7886 -9.0636 10.0099 -0.0000 0.0000 9.2871 -3.0310 0.4202 14.7212 -0.4128 -18.6170 -39.1032 23.1697 59.5332 98.3641 0.0000 1.9061 0.3303 1.5142 -12.3077 32.8623 0.0000 -24.3270 25.0758 19.0035 9.5529 -66.0693 -19.0934 -65.8491 -76.7059 -0.0000 9.8151 -6.7431 25.0442 15.6055 33.1476 -0.0000 26.2537 7.3805 16.0600 -0.1893
 7.6465 37.1737 0.5636 -9.3211 -8.4579 0.4065 15.0577 -1.9687 -0.9487 -3.1457 0.0000 0.0000 -9.8316 -18.0689 9.2526 13.1292 -0.0000 -0.0000 14.2900 0.0263 -0.5329 -1.2143 0.0000 -0.0000 -6.8284 22.5792 -9.0658 10.0947 0.0000 -0.0000 9.3669 -2.9597 0.4476 14.6972 -0.2523 -18.6656 -39.9320 24.0745 60.6916 98.5436 0.0000 1.8563 0.3335 1.4818 -12.6848 32.8623 0.0000 -24.3270 25.0361 18.7693 9.7067 -66.3577 -19.5222 -66.7403 -76.9879 -0.0000 11.0867 -6.7466 25.1532 15.5529 33.1476 -0.0000 26.2537 7.1159 16.0503 -0.1352
